<?xml version="1.0" encoding="UTF-8" standalone="no"?>
<!DOCTYPE svg PUBLIC "-//W3C//DTD SVG 1.1//EN" "http://www.w3.org/Graphics/SVG/1.1/DTD/svg11.dtd">
<svg width="100%" height="100%" viewBox="0 0 766 766" version="1.1" xmlns="http://www.w3.org/2000/svg" xmlns:xlink="http://www.w3.org/1999/xlink" xml:space="preserve" xmlns:serif="http://www.serif.com/" style="fill-rule:evenodd;clip-rule:evenodd;stroke-linejoin:round;stroke-miterlimit:2;">
    <path id="path21" d="M546.467,266.046C561.257,257.99 578.106,254.146 594.874,253.61C611.314,253.033 628.003,255.932 642.977,262.859C654.925,268.288 665.271,277.001 673.063,287.515C681.887,299.399 686.876,314.021 687.317,328.804C671.309,328.78 655.301,328.82 639.302,328.756C638.909,319.611 636.355,310.169 630.197,303.179C622.245,294.13 609.921,289.966 598.093,290.022C585.897,289.91 573.157,293.601 564.412,302.458C557.638,308.968 554.354,318.329 553.714,327.546C550.607,327.578 547.5,327.586 544.401,327.538C545.378,319.05 547.548,310.458 552.545,303.395C559.407,292.953 570.851,286.234 582.878,283.511C596.708,280.572 611.747,281.517 624.447,288.076C636.675,294.498 644.963,306.966 647.486,320.411C657.552,320.572 667.617,320.371 677.691,320.492C675.161,303.843 665.768,288.54 652.491,278.29C640.311,268.889 625.168,264.052 610.001,262.451C593.849,260.833 577.193,262.347 561.962,268.184C550.631,272.276 540.381,279.067 531.764,287.451C520.857,298.246 513.122,312.42 510.728,327.643C507.3,327.731 503.873,327.691 500.445,327.747C504.537,301.273 523.092,278.41 546.467,266.046L546.467,266.046Z" style="fill-rule:nonzero;"/>
    <path id="path23" d="M534.935,286.626C552.937,269.153 578.962,261.73 603.643,263.323C620.091,263.892 636.643,268.761 650,278.554C659.065,285.337 666.857,294.178 671.117,304.772C672.815,309.112 674.224,313.597 674.921,318.217C671.445,318.017 667.818,318.522 664.438,317.945C662.476,308.239 658.08,298.974 651.378,291.631C642.513,281.782 630.141,275.535 617.264,272.845C600.343,269.361 582.334,270.194 566.126,276.416C553.874,281.293 542.615,289.397 535.328,300.52C529.986,308.728 526.303,318.025 524.813,327.715C521.298,327.65 517.774,327.658 514.259,327.667C516.237,312.155 523.684,297.461 534.935,286.626L534.935,286.626Z" style="fill-rule:nonzero;"/>
    <path id="path25" d="M73.915,300.344C73.771,288.925 73.899,277.505 73.891,266.094C129.73,266.166 185.561,266.102 241.399,266.11C241.287,277.505 241.624,288.909 241.343,300.312C221.796,300.176 202.249,300.28 182.71,300.184C182.742,359.642 182.662,419.1 182.758,478.551C167.166,478.767 151.575,478.735 135.984,478.775C134.903,478.567 133.277,479.319 132.725,477.998C132.685,418.748 132.653,359.498 132.669,300.24C113.081,300.28 93.502,300.192 73.915,300.344M82.563,274.647C82.531,280.364 82.555,286.082 82.644,291.799C102.255,291.671 121.858,291.583 141.469,291.735C141.557,351.178 141.285,410.636 141.661,470.078C152.4,470.126 163.147,470.11 173.893,470.11C173.837,410.604 173.813,351.097 173.909,291.591C193.52,291.663 213.132,291.567 232.743,291.759C232.719,286.05 232.735,280.332 232.655,274.622C182.63,274.711 132.597,274.695 82.563,274.646L82.563,274.647Z" style="fill-rule:nonzero;"/>
    <path id="path27" d="M582.934,274.246C598.366,271.531 614.758,272.821 629.028,279.571C639.942,284.672 649.568,293.017 655.085,303.827C657.48,308.36 658.977,313.292 660.098,318.273C656.487,318.289 652.875,318.257 649.271,318.305C646.789,305.733 638.669,294.506 627.498,288.236C616.808,281.789 603.947,280.132 591.679,281.005C578.906,281.942 566.286,286.939 556.909,295.771C547.924,304.003 542.631,315.655 540.853,327.586C537.274,327.578 533.71,327.594 530.139,327.643C531.948,315.07 537.234,302.97 545.938,293.641C555.604,283.231 569.033,276.681 582.934,274.246L582.934,274.246Z" style="fill-rule:nonzero;"/>
    <path id="path29" d="M86.111,278.274C109.326,278.306 132.533,278.258 155.739,278.314C155.547,341.032 155.763,403.749 155.691,466.467C152.24,466.499 148.789,466.515 145.337,466.547C145.393,407.008 145.305,347.47 145.361,287.94C125.622,288.276 105.866,288.172 86.119,287.964C86.071,284.728 86.095,281.501 86.111,278.274L86.111,278.274Z" style="fill-rule:nonzero;"/>
    <path id="path31" d="M159.791,278.29C182.91,278.226 206.037,278.282 229.163,278.218C229.171,281.469 229.171,284.72 229.171,287.972C209.496,288.26 189.829,288.044 170.161,287.956C170.009,347.47 170.161,406.984 170.081,466.499C166.67,466.523 163.251,466.499 159.839,466.491C159.855,403.757 159.831,341.024 159.791,278.29L159.791,278.29Z" style="fill-rule:nonzero;"/>
    <path id="path33" d="M317.066,325.2C329.678,321.228 343.403,321.509 356.008,325.344C354.71,337.46 353.221,349.56 351.692,361.652C343.243,358.249 333.938,356.327 324.865,357.968C315.392,359.53 306.247,364.919 301.458,373.415C297.775,379.501 296.149,386.636 296.029,393.699C296.021,421.983 296.029,450.275 296.005,478.559C281.038,478.919 266.056,478.711 251.089,478.711C250.993,478.478 250.801,478.022 250.696,477.79C250.688,427.42 250.608,377.043 250.736,326.666C262.732,326.762 274.736,326.666 286.732,326.818C286.756,333.152 286.692,339.494 286.836,345.836C295.116,336.755 305.134,328.764 317.066,325.2M305.839,340.199C296.069,346.885 287.42,355.67 282.263,366.425C280.822,366.36 279.389,366.296 277.955,366.24C278.115,355.87 277.963,345.5 278.051,335.138C274.2,335.17 270.356,335.17 266.52,335.25C264.158,335.202 261.795,335.138 259.433,335.146C259.001,339.983 259.305,344.859 259.217,349.712C259.561,389.856 259.345,429.999 259.401,470.134C268.69,470.15 277.979,470.142 287.268,470.206C287.172,447.664 287.292,425.122 287.212,402.588C287.268,396.686 286.884,390.736 287.997,384.915C289.591,376.771 292.866,368.707 298.784,362.741C310.235,350.561 328.509,346.165 344.524,350.241C345.237,344.091 346.006,337.949 346.831,331.815C332.729,329.116 317.722,332.151 305.838,340.199L305.839,340.199Z" style="fill-rule:nonzero;"/>
    <path id="path35" d="M319.156,336.82C326.883,334.513 335.043,334.641 343.003,335.242C343.059,338.661 342.258,342.033 342.162,345.452C330.15,343.53 317.282,345.748 307.2,352.755C295.885,360.138 288.766,372.783 286.387,385.908C285.354,393.011 285.675,400.202 285.619,407.353C285.651,427.308 285.659,447.264 285.643,467.211C282.672,467.203 279.701,467.195 276.73,467.235C276.738,444.085 276.722,420.926 276.73,397.767C276.522,384.947 280.045,372.102 286.548,361.067C294.059,349.464 305.903,340.719 319.156,336.819L319.156,336.82Z" style="fill-rule:nonzero;"/>
    <path id="path37" d="M486.576,340.815C487.12,337.788 489.963,335.178 493.142,335.498C495.401,335.418 497.146,337.052 498.443,338.709C510.575,338.629 522.699,338.269 534.831,338.373C546.483,350.313 558.478,361.908 570.218,373.76C558.59,385.227 547.043,396.782 535.536,408.37C523.236,408.298 510.936,408.474 498.644,408.226C497.234,409.899 495.481,411.653 493.126,411.613C488.938,411.997 485.279,407.377 486.84,403.405C487.905,399.977 492.309,397.895 495.521,399.753C496.77,400.346 497.531,401.627 498.732,402.3C509.158,402.228 519.6,402.228 530.034,402.236C530.979,402.1 532.237,402.484 532.949,401.611C542.222,392.282 551.656,383.121 560.905,373.768C550.999,364.03 541.294,354.076 531.284,344.443C520.329,344.539 509.366,344.427 498.411,344.499C497.194,345.932 495.817,347.526 493.839,347.774C489.955,348.535 485.863,344.771 486.576,340.815M492.029,338.998C488.946,339.574 489.971,344.843 493.15,343.979C496.546,343.738 495.232,337.965 492.029,338.998M491.132,403.149C489.363,404.334 490.075,407.665 492.317,407.801C493.903,408.242 495.529,406.568 495.136,404.99C495.024,403.149 492.606,402.019 491.132,403.149Z" style="fill-rule:nonzero;"/>
    <path id="path39" d="M262.973,338.181C266.368,338.221 269.763,338.157 273.158,338.165C273.215,381.167 273.07,424.169 273.118,467.171C269.731,467.171 266.344,467.171 262.965,467.195C263.077,424.185 262.965,381.183 262.973,338.181L262.973,338.181Z" style="fill-rule:nonzero;"/>
    <path id="path41" d="M544.401,338.149C547.524,338.293 550.735,337.756 553.81,338.269C565.87,350.113 577.801,362.1 589.973,373.832C577.97,385.515 566.462,397.735 554.098,409.034C551.135,408.738 548.148,408.794 545.177,408.866C556.765,396.999 568.913,385.691 580.42,373.736C568.32,361.964 556.428,349.992 544.401,338.149Z" style="fill-rule:nonzero;"/>
    <path id="path43" d="M486.608,358.569C486.183,354.917 489.387,351.154 493.166,351.434C495.433,351.37 497.21,353.051 498.443,354.781C509.871,354.677 521.306,354.861 532.733,354.637C532.765,356.623 532.757,358.617 532.749,360.611C521.402,360.571 510.063,360.523 498.716,360.667C497.37,362.373 495.489,364.014 493.166,363.886C490.043,364.07 487.104,361.636 486.608,358.569M491.164,355.798C489.883,356.767 489.987,359.201 491.549,359.89C493.094,361.259 495.368,359.49 495.296,357.696C495.497,355.646 492.598,354.285 491.164,355.798Z" style="fill-rule:nonzero;"/>
    <path id="path45" d="M380.432,366.048C407.714,365.984 434.989,366.024 462.272,366.056C462.336,376.298 462.352,386.548 462.264,396.79C434.989,396.71 407.715,396.694 380.44,396.926C380.312,386.628 380.416,376.338 380.432,366.048M388.744,374.304C388.712,379.093 388.752,383.89 388.72,388.678C410.397,388.59 432.082,388.574 453.76,388.614C453.824,383.81 453.824,379.013 453.768,374.208C432.09,374.288 410.421,374.2 388.744,374.304L388.744,374.304Z" style="fill-rule:nonzero;"/>
    <path id="path47" d="M486.904,372.839C487.241,369.74 490.123,367.434 493.134,367.161C495.633,367.233 497.571,369.035 498.924,370.981C516.597,370.845 534.279,370.901 551.96,370.925C551.928,372.775 551.912,374.633 551.904,376.49C534.126,376.522 516.357,376.474 498.58,376.466C497.37,378.308 495.392,379.814 493.11,379.822C489.531,379.974 486.296,376.402 486.904,372.839M491.997,371.109C491.02,371.51 490.083,372.607 490.42,373.736C490.291,376.306 494.672,376.979 495.288,374.481C496.105,372.503 493.951,370.292 491.997,371.109Z" style="fill-rule:nonzero;"/>
    <path id="path49" d="M391.274,376.779C411.294,376.715 431.314,376.763 451.333,376.755C451.341,379.894 451.365,383.049 451.437,386.196C431.362,386.068 411.294,386.252 391.218,386.196C391.266,383.049 391.282,379.918 391.274,376.779L391.274,376.779Z" style="fill-rule:nonzero;"/>
    <path id="path51" d="M487.593,392.883C484.694,388.903 488.466,382.921 493.174,383.105C495.497,383.073 497.098,384.923 498.636,386.396C509.999,386.484 521.362,386.356 532.725,386.38C532.789,388.366 532.821,390.352 532.829,392.338C521.386,392.402 509.935,392.21 498.492,392.418C496.393,396.606 490.035,396.798 487.593,392.883M491.941,387.053C488.866,388.038 490.708,393.051 493.679,391.834C496.666,390.825 494.96,385.804 491.941,387.053Z" style="fill-rule:nonzero;"/>
    <path id="path53" d="M639.214,409.387C655.245,409.363 671.285,409.347 687.317,409.379C686.692,424.017 682.488,438.559 674.32,450.787C662.516,468.693 642.721,480.088 622.013,484.468C596.163,489.842 568.28,486.59 544.857,474.178C523.652,462.775 506.211,442.9 500.838,419.1C504.273,419.092 507.725,419.124 511.168,419.108C518.111,445.638 540.813,466.066 566.582,473.986C582.206,478.567 598.862,479.6 614.95,477.125C628.795,474.979 642.233,469.638 653.323,461.029C666.632,450.499 675.681,434.555 677.571,417.659C667.633,417.779 657.688,417.451 647.758,417.843C645.628,429.39 640.223,440.681 630.893,448.113C621.845,455.264 610.153,458.235 598.806,458.851C585.225,459.099 571.067,455.416 560.633,446.399C552.216,439.64 546.659,429.51 545.402,418.796C548.38,418.78 551.367,418.756 554.354,418.7C555.507,424.61 557.533,430.519 561.417,435.228C569.025,444.733 581.133,449.866 593.112,450.571C605.436,451.476 618.713,448.297 627.746,439.48C635.786,431.737 639.23,420.333 639.214,409.387L639.214,409.387Z" style="fill-rule:nonzero;"/>
    <path id="path55" d="M514.539,419.044C518.159,419.028 521.794,419.06 525.422,418.948C528.233,430.768 534.575,441.666 543.464,449.946C556.164,462.014 573.589,468.044 590.83,469.422C602.482,470.118 614.365,468.997 625.448,465.217C636.419,461.358 646.741,454.871 653.788,445.486C659.57,438.119 663.285,429.166 664.534,419.893C667.97,419.901 671.405,419.869 674.849,419.909C673.519,431.176 668.891,442.075 661.507,450.715C654.725,458.811 646.028,465.282 636.347,469.51C622.125,475.828 606.277,477.902 590.822,476.893C573.99,476.108 557.141,471.047 543.36,461.197C529.13,451.244 518.279,436.093 514.539,419.044L514.539,419.044Z" style="fill-rule:nonzero;"/>
    <path id="path57" d="M530.451,418.948C534.319,419.044 538.186,418.988 542.062,418.916C544.609,430.543 551.247,441.33 560.841,448.449C572.06,456.985 586.514,460.557 600.464,459.868C613.669,459.14 626.994,454.423 636.627,445.15C643.698,438.495 647.886,429.318 649.824,419.917C653.323,419.941 656.831,419.933 660.338,419.957C658.513,431.128 653.275,441.738 645.131,449.65C633.896,460.613 618.273,466.138 602.834,467.412C589.821,468.485 576.632,465.858 564.749,460.557C552.841,454.911 542.487,445.678 536.409,433.907C533.822,429.174 532.141,424.041 530.451,418.948L530.451,418.948Z" style="fill-rule:nonzero;"/>
</svg>
